<svg width="25" height="25" viewBox="0 0 25 25" fill="none" xmlns="http://www.w3.org/2000/svg">
<path d="M6.42871 12.0537L11.2501 16.0716L17.6787 8.03585M12.0537 23.3037C10.5763 23.3037 9.11344 23.0127 7.74852 22.4474C6.38361 21.882 5.14342 21.0533 4.09876 20.0087C3.0541 18.964 2.22543 17.7238 1.66007 16.3589C1.0947 14.994 0.803711 13.5311 0.803711 12.0537C0.803711 10.5763 1.0947 9.11344 1.66007 7.74852C2.22543 6.38361 3.0541 5.14342 4.09876 4.09876C5.14342 3.0541 6.38361 2.22543 7.74852 1.66007C9.11344 1.0947 10.5763 0.803711 12.0537 0.803711C15.0374 0.803711 17.8989 1.98898 20.0087 4.09876C22.1184 6.20854 23.3037 9.07003 23.3037 12.0537C23.3037 15.0374 22.1184 17.8989 20.0087 20.0087C17.8989 22.1184 15.0374 23.3037 12.0537 23.3037Z" stroke="#E97D26" stroke-width="1.60714"/>
</svg>
